<svg xmlns="http://www.w3.org/2000/svg" xmlns:xlink="http://www.w3.org/1999/xlink" width="471" height="416" viewBox="0 0 471 416">
  <defs>
    <style>
      .cls-1 {
        fill: #374891;
      }

      .cls-1, .cls-2 {
        fill-rule: evenodd;
      }

      .cls-2 {
        fill: #b92c49;
        filter: url(#filter);
      }
    </style>
    <filter id="filter" x="2.313" y="297.125" width="468.625" height="118.375" filterUnits="userSpaceOnUse">
      <feGaussianBlur result="blur" stdDeviation="1.667" in="SourceAlpha"/>
      <feFlood result="flood" flood-color="#fff" flood-opacity="0.35"/>
      <feComposite result="composite-2" operator="out" in2="blur"/>
      <feComposite result="composite" operator="in" in2="SourceAlpha"/>
      <feBlend result="blend" mode="screen" in2="SourceGraphic"/>
    </filter>
  </defs>
  <path id="W" class="cls-1" d="M338.7-.15V224.484q0,27.319-19.531,27.32-10.422,0-14-5.565t-3.58-21.755V-0.15H169.427v226.4q0,25.554-19.531,25.55-10.422,0-13.835-5.312t-3.418-22.008V-0.15H0.482V239.915q0,55.151,31.9,84.49t91.8,29.344q37.758,0,63.476-11.257t48.177-37.565q36.453,48.823,105.469,48.822,57.289,0,93.425-29.344t36.132-75.89V-0.15H338.7Z"/>
  <path id="BOOM" class="cls-2" d="M2.319,412.7H35.863V330.162h6.2q8.344,0,8.345,5.866,0,6.363-9.253,6.361v30.074h6.444q8.427,0,8.427,5.453,0,3.222-2.065,4.5t-7.105,1.28h-5.7v29h6.362q10.079,0,16.028-1.735a30.542,30.542,0,0,0,11.154-6.114q10.658-9.171,10.658-24.621,0-20.157-18.094-28.008,12.474-9.418,12.476-23.629,0-28.668-36.435-28.669H2.319V412.7ZM109.6,314.3Q92.126,331.484,92.127,356.27a59.237,59.237,0,0,0,59.239,59.238q24.7,0,41.971-17.268T210.6,356.27a57.409,57.409,0,0,0-17.144-41.723q-17.144-17.432-41.1-17.433Q127.075,297.114,109.6,314.3ZM169,337.887a26.987,26.987,0,0,1,0,36.765,24.217,24.217,0,0,1-35.2-.041,26.714,26.714,0,0,1-.041-36.683A24.265,24.265,0,0,1,169,337.887ZM237.083,314.3q-17.475,17.185-17.474,41.971a59.237,59.237,0,0,0,59.238,59.238q24.7,0,41.971-17.268t17.267-41.97a57.412,57.412,0,0,0-17.143-41.723q-17.145-17.432-41.1-17.433Q254.557,297.114,237.083,314.3Zm59.4,23.588a26.987,26.987,0,0,1,0,36.765,24.217,24.217,0,0,1-35.2-.041,26.714,26.714,0,0,1-.041-36.683A24.265,24.265,0,0,1,296.486,337.887ZM385.1,412.7V339.332q0-9,4.957-9,2.643,0,3.553,1.818t0.908,7.187V412.7h33.544V338.754q0-8.427,4.957-8.427,2.643,0,3.512,1.776t0.867,7.229V412.7h33.544V334.293q0-18.01-8.1-27.6t-23.3-9.584q-9.585,0-16.111,3.676T411.2,313.059q-9.338-15.944-26.687-15.945-14.624,0-23.794,9.584t-9.171,24.7v81.3H385.1Z"/>
</svg>
